<svg width="20" height="20" viewBox="0 0 20 20" fill="none" xmlns="http://www.w3.org/2000/svg">
<path d="M19.5991 10.0001C19.5983 4.89334 15.5997 0.681058 10.4999 0.414646C5.40016 0.148234 0.984417 3.92095 0.451518 8.99979C-0.0813802 14.0786 3.45511 18.6857 8.49911 19.4837L8.49911 12.7751H6.06191V10.0001H8.49911V7.88506C8.49911 5.47906 9.93251 4.15006 12.1249 4.15006C12.8449 4.16005 13.5632 4.22261 14.2741 4.33726V6.70006L13.0633 6.70006C12.6454 6.64455 12.2248 6.78214 11.9205 7.07396C11.6162 7.36578 11.4612 7.78015 11.4991 8.20006V10.0001H14.1619L13.7359 12.7751H11.4991L11.4991 19.4837C16.1645 18.7456 19.5998 14.7235 19.5991 10.0001Z" fill="#2E6FE8"/>
</svg>
