<svg width="43" height="26" viewBox="0 0 43 26" fill="none" xmlns="http://www.w3.org/2000/svg">
<g clip-path="url(#clip0_1_34044)">
<path d="M26.883 2.82031L15.7793 2.85828L16.1158 23.0824L27.2194 23.0444L26.883 2.82031Z" fill="#FF5F00"/>
<path d="M16.5132 13.015C16.4445 8.9016 18.2967 5.24667 21.1977 2.87591C19.008 1.16638 16.2627 0.138373 13.2868 0.148512C6.2367 0.172533 0.629055 5.95074 0.74795 13.0687C0.866845 20.1867 6.66687 25.9261 13.717 25.9021C16.6929 25.8918 19.4035 24.8452 21.5358 23.121C18.5566 20.8062 16.5819 17.1284 16.5132 13.015Z" fill="#EB001B"/>
<path d="M42.2509 12.8334C42.3698 19.9515 36.7621 25.7295 29.7121 25.7537C26.736 25.7638 23.9909 24.7358 21.8011 23.0263C24.7376 20.6554 26.5544 17.0005 26.4856 12.8871C26.4168 8.77368 24.4429 5.1318 21.4629 2.78108C23.5953 1.05681 26.3058 0.0102135 29.2819 7.46773e-05C36.3319 -0.0239484 42.1326 5.75117 42.2509 12.8334Z" fill="#F79E1B"/>
</g>
<defs>
<clipPath id="clip0_1_34044">
<rect width="43" height="26" fill="white"/>
</clipPath>
</defs>
</svg>
