<svg width="33" height="29" viewBox="0 0 33 29" fill="none" xmlns="http://www.w3.org/2000/svg">
<path d="M11.7344 28.6719C12.9425 28.6719 13.9219 27.6925 13.9219 26.4844C13.9219 25.2763 12.9425 24.2969 11.7344 24.2969C10.5263 24.2969 9.54688 25.2763 9.54688 26.4844C9.54688 27.6925 10.5263 28.6719 11.7344 28.6719Z" fill="#2A1454"/>
<path d="M25.9531 28.6719C27.1612 28.6719 28.1406 27.6925 28.1406 26.4844C28.1406 25.2763 27.1612 24.2969 25.9531 24.2969C24.745 24.2969 23.7656 25.2763 23.7656 26.4844C23.7656 27.6925 24.745 28.6719 25.9531 28.6719Z" fill="#2A1454"/>
<path d="M6.58008 6.79688H31.1074L27.498 19.4297C27.3693 19.8882 27.0935 20.2917 26.7131 20.5782C26.3327 20.8647 25.8688 21.0184 25.3926 21.0156H12.2949C11.8187 21.0184 11.3548 20.8647 10.9744 20.5782C10.594 20.2917 10.3182 19.8882 10.1895 19.4297L5.24023 2.12109C5.17483 1.89244 5.03668 1.69133 4.84672 1.54824C4.65675 1.40515 4.42533 1.32787 4.1875 1.32813H1.89062" stroke="#2A1454" stroke-width="2" stroke-linecap="round" stroke-linejoin="round"/>
</svg>
