<svg width="47" height="26" viewBox="0 0 47 26" fill="none" xmlns="http://www.w3.org/2000/svg">
<g clip-path="url(#clip0_1_34055)">
<path d="M42.5813 -2.63281H4.2168C2.02492 -2.63281 0.248047 -0.884372 0.248047 1.27244V24.7039C0.248047 26.8607 2.02492 28.6092 4.2168 28.6092H42.5813C44.7732 28.6092 46.55 26.8607 46.55 24.7039V1.27244C46.55 -0.884372 44.7732 -2.63281 42.5813 -2.63281Z" fill="#1F72CD"/>
<path fill-rule="evenodd" clip-rule="evenodd" d="M8.54697 8.4375L4.21484 17.871H9.40099L10.0439 16.3669H11.5135L12.1565 17.871H17.865V16.723L18.3736 17.871H21.3265L21.8352 16.6987V17.871H33.7073L35.1508 16.4059L36.5026 17.871L42.6003 17.8831L38.2546 13.1806L42.6003 8.4375H36.5971L35.1918 9.87547L33.8828 8.4375H20.9674L19.8584 10.8724L18.7233 8.4375H13.548V9.54642L12.9723 8.4375H8.54697ZM26.2756 9.77707H33.0931L35.1783 11.9934L37.3306 9.77707H39.4158L36.2476 13.1792L39.4158 16.5422H37.2361L35.1508 14.3001L32.9876 16.5422H26.2756V9.77707ZM27.9591 12.4144V11.1787V11.1775H32.2131L34.0693 13.1537L32.1308 15.1407H27.9591V13.7917H31.6783V12.4144H27.9591ZM9.55044 9.77707H12.0784L14.9519 16.1739V9.77707H17.7212L19.9406 14.3636L21.9861 9.77707H24.7416V16.5462H23.0649L23.0513 11.2419L20.6069 16.5462H19.1071L16.649 11.2419V16.5462H13.1998L12.5459 15.0286H9.01307L8.36052 16.5448H6.51247L9.55044 9.77707ZM9.61632 13.6257L10.7802 10.9223L11.9428 13.6257H9.61632Z" fill="white"/>
</g>
<defs>
<clipPath id="clip0_1_34055">
<rect width="47" height="26" fill="white"/>
</clipPath>
</defs>
</svg>
