<svg width="75" height="22" viewBox="0 0 75 22" fill="none" xmlns="http://www.w3.org/2000/svg">
<g clip-path="url(#clip0_1_34064)">
<path d="M12.6953 2.43353C11.7552 1.77005 10.5285 1.4375 9.01519 1.4375H3.15637C2.69244 1.4375 2.43613 1.6757 2.38744 2.15166L0.00747068 17.4898C-0.0172647 17.6404 0.0194466 17.7782 0.117269 17.9034C0.214532 18.0289 0.336866 18.0913 0.483375 18.0913H3.26628C3.75439 18.0913 4.02266 17.8537 4.0719 17.3772L4.73093 13.242C4.755 13.0416 4.84084 12.8787 4.98735 12.7532C5.13375 12.628 5.31686 12.546 5.53658 12.5086C5.75629 12.4713 5.96344 12.4525 6.15908 12.4525C6.35419 12.4525 6.58598 12.4652 6.85493 12.4902C7.1232 12.5151 7.29424 12.5274 7.36755 12.5274C9.4668 12.5274 11.1146 11.9201 12.3109 10.7041C13.5067 9.48886 14.1053 7.8036 14.1053 5.64768C14.1053 4.16901 13.6349 3.09806 12.6953 2.43353ZM9.67455 7.0391C9.55211 7.91644 9.23512 8.49259 8.7225 8.76837C8.2098 9.04449 7.47746 9.18194 6.52553 9.18194L5.31709 9.2194L5.93974 5.19676C5.9883 4.92133 6.14689 4.78343 6.41561 4.78343H7.11158C8.08755 4.78343 8.79593 4.92788 9.23535 5.21559C9.67455 5.50403 9.82106 6.11202 9.67455 7.0391Z" fill="#003087"/>
<path d="M74.5201 1.4375H71.8107C71.5415 1.4375 71.3832 1.57539 71.3348 1.85129L68.9547 17.4905L68.918 17.5656C68.918 17.6915 68.9667 17.81 69.0646 17.9229C69.1617 18.0355 69.2843 18.0919 69.4306 18.0919H71.8478C72.3106 18.0919 72.5671 17.8542 72.6166 17.3777L74.9967 2.00171V1.96436C74.9967 1.61331 74.8373 1.4375 74.5201 1.4375Z" fill="#009CDE"/>
<path d="M41.7757 7.48723C41.7757 7.36218 41.727 7.24291 41.6299 7.13041C41.532 7.01769 41.4221 6.96094 41.3002 6.96094H38.4806C38.2117 6.96094 37.992 7.08687 37.8214 7.33681L33.9399 13.2017L32.3288 7.56262C32.2061 7.16191 31.9379 6.96094 31.5232 6.96094H28.7765C28.6541 6.96094 28.5443 7.01746 28.4473 7.13041C28.3493 7.24291 28.3008 7.36242 28.3008 7.48723C28.3008 7.53767 28.5388 8.27675 29.0147 9.70533C29.4907 11.1343 30.0033 12.6757 30.5526 14.33C31.102 15.9838 31.3886 16.8615 31.4131 16.9609C29.4112 19.7684 28.4107 21.2721 28.4107 21.4723C28.4107 21.7984 28.5691 21.9611 28.8867 21.9611H31.7062C31.9746 21.9611 32.1942 21.8361 32.3655 21.5853L41.703 7.75026C41.7517 7.7006 41.7757 7.6134 41.7757 7.48723Z" fill="#003087"/>
<path d="M68.0352 6.95061H65.2523C64.9099 6.95061 64.7033 7.36429 64.6298 8.19154C63.9945 7.18931 62.8358 6.6875 61.1509 6.6875C59.3933 6.6875 57.8978 7.36429 56.6655 8.71772C55.4325 10.0711 54.8164 11.6631 54.8164 13.4925C54.8164 14.9715 55.2375 16.1493 56.0794 17.0262C56.9217 17.9039 58.0504 18.342 59.4668 18.342C60.1748 18.342 60.8948 18.1913 61.6272 17.8908C62.3595 17.5901 62.9325 17.1893 63.3484 16.6879C63.3484 16.713 63.3233 16.8254 63.2753 17.0258C63.2258 17.2267 63.2018 17.3776 63.2018 17.4769C63.2018 17.8784 63.36 18.0784 63.678 18.0784H66.2048C66.6679 18.0784 66.9368 17.8408 67.0099 17.3642L68.5114 7.55206C68.5354 7.40152 68.499 7.264 68.4015 7.13849C68.3033 7.01348 68.1814 6.95061 68.0352 6.95061ZM63.2565 14.357C62.634 14.9836 61.8833 15.2968 61.0047 15.2968C60.2963 15.2968 59.7233 15.0966 59.2834 14.6953C58.8439 14.2952 58.6242 13.7437 58.6242 13.0412C58.6242 12.1146 58.9294 11.3306 59.5399 10.6916C60.1493 10.0525 60.9068 9.73304 61.8102 9.73304C62.493 9.73304 63.0608 9.93979 63.5127 10.3531C63.9642 10.7668 64.1907 11.337 64.1907 12.064C64.1903 12.9662 63.879 13.7308 63.2565 14.357Z" fill="#009CDE"/>
<path d="M26.4633 6.95061H23.6803C23.338 6.95061 23.131 7.36429 23.0577 8.19154C22.3985 7.18931 21.2389 6.6875 19.5789 6.6875C17.8213 6.6875 16.3259 7.36429 15.0932 8.71772C13.8603 10.0711 13.2441 11.6631 13.2441 13.4925C13.2441 14.9715 13.6653 16.1493 14.5075 17.0262C15.3498 17.9039 16.4785 18.342 17.8946 18.342C18.5778 18.342 19.2861 18.1913 20.0183 17.8908C20.7507 17.5901 21.3366 17.1893 21.776 16.6879C21.6781 16.9884 21.6295 17.2516 21.6295 17.4769C21.6295 17.8784 21.7881 18.0784 22.1055 18.0784H24.6321C25.0956 18.0784 25.3644 17.8408 25.4377 17.3642L26.939 7.55206C26.963 7.40152 26.9265 7.264 26.8292 7.13849C26.7315 7.01348 26.6096 6.95061 26.4633 6.95061ZM21.6847 14.3756C21.062 14.9904 20.2988 15.2968 19.3962 15.2968C18.6878 15.2968 18.1202 15.0966 17.6933 14.6953C17.2659 14.2952 17.0525 13.7437 17.0525 13.0412C17.0525 12.1146 17.3574 11.3306 17.968 10.6916C18.5779 10.0525 19.3347 9.73293 20.2383 9.73293C20.9215 9.73293 21.489 9.93979 21.9411 10.3531C22.3924 10.7668 22.6185 11.337 22.6185 12.064C22.6184 12.9913 22.3072 13.7623 21.6847 14.3756Z" fill="#003087"/>
<path d="M54.305 2.43353C53.3648 1.77005 52.1386 1.4375 50.6247 1.4375H44.8025C44.3142 1.4375 44.0453 1.67571 43.997 2.15166L41.6168 17.4898C41.5921 17.6404 41.6288 17.7782 41.7267 17.9034C41.8235 18.0289 41.9461 18.0913 42.0927 18.0913H45.0953C45.3882 18.0913 45.5832 17.9286 45.6815 17.6027L46.3403 13.242C46.3647 13.0416 46.4502 12.8787 46.5968 12.7532C46.7435 12.6279 46.9261 12.546 47.1462 12.5086C47.3656 12.4713 47.573 12.4525 47.7687 12.4525C47.9637 12.4525 48.1955 12.4652 48.4643 12.4902C48.7325 12.5151 48.9042 12.5274 48.977 12.5274C51.0766 12.5274 52.724 11.9201 53.9202 10.7041C55.1165 9.48885 55.7146 7.80359 55.7146 5.64767C55.7146 4.169 55.2443 3.09794 54.305 2.43353ZM50.5516 8.61783C50.0146 8.9937 49.2087 9.18158 48.1351 9.18158L46.9632 9.21927L47.5857 5.19652C47.6341 4.92121 47.7927 4.78307 48.0616 4.78307H48.7205C49.2575 4.78307 49.6846 4.80825 50.0026 4.85822C50.3191 4.90858 50.6247 5.06497 50.918 5.328C51.2108 5.59123 51.3571 5.97365 51.3571 6.47465C51.3571 7.5277 51.0882 8.24164 50.5516 8.61783Z" fill="#009CDE"/>
</g>
<defs>
<clipPath id="clip0_1_34064">
<rect y="0.5" width="75" height="21" fill="white"/>
</clipPath>
</defs>
</svg>
