<svg width="62" height="20" viewBox="0 0 62 20" fill="none" xmlns="http://www.w3.org/2000/svg">
<path d="M57.8226 0.273438H53.9249C52.7463 0.273438 51.8399 0.640598 51.2961 1.83387L43.8633 18.9985H49.1209C49.1209 18.9985 50.0273 16.7038 50.2084 16.153C50.7524 16.153 55.9189 16.153 56.6443 16.153C56.8253 16.7956 57.2785 18.9067 57.2785 18.9067H61.9921L57.8226 0.273438ZM51.6589 12.2979C52.1121 11.1964 53.6528 7.06585 53.6528 7.06585C53.6528 7.15764 54.106 5.9644 54.2873 5.32187L54.65 6.97406C54.65 6.97406 55.647 11.4717 55.8283 12.3897H51.6589V12.2979Z" fill="#3362AB"/>
<path d="M44.2287 12.8505C44.2287 16.7057 40.7843 19.2758 35.4361 19.2758C33.1704 19.2758 30.9948 18.8168 29.8164 18.2661L30.5416 14.0438L31.1761 14.3191C32.8077 15.0535 33.8955 15.3288 35.8894 15.3288C37.3399 15.3288 38.8809 14.7781 38.8809 13.4931C38.8809 12.667 38.2463 12.1162 36.2521 11.1983C34.3487 10.2804 31.8107 8.8118 31.8107 6.14988C31.8107 2.4783 35.3456 0 40.331 0C42.2344 0 43.866 0.367161 44.8632 0.826112L44.1382 4.86485L43.7755 4.49769C42.869 4.13053 41.6907 3.76337 39.9683 3.76337C38.0649 3.85516 37.1585 4.68127 37.1585 5.41559C37.1585 6.24167 38.2463 6.8842 39.9683 7.71032C42.869 9.08717 44.2287 10.6476 44.2287 12.8505Z" fill="#3362AB"/>
<path d="M0 0.46873L0.0906434 0.101562H7.88597C8.97369 0.101562 9.78946 0.46873 10.0614 1.66197L11.7836 9.92303C10.0614 5.51713 6.07309 1.93734 0 0.46873Z" fill="#F9B50B"/>
<path d="M22.7641 0.279293L14.8782 18.9125H9.53019L4.99805 3.30834C8.2612 5.41951 10.9805 8.72393 11.9776 11.0187L12.5214 12.9462L17.4162 0.1875H22.7641V0.279293Z" fill="#3362AB"/>
<path d="M24.8463 0.1875H29.8317L26.6592 18.9125H21.6738L24.8463 0.1875Z" fill="#3362AB"/>
</svg>
